<svg>

    <symbol id="logo" width="80" height="47" viewBox="0 0 80 47" fill="none" xmlns="http://www.w3.org/2000/svg">
        <g clip-path="url(#clip0_16101_45)">
        <path d="M70.3333 34.617C70.0198 34.617 69.7847 34.4668 69.6018 34.1163C69.445 33.8158 69.3405 33.3151 69.3405 32.7141V14.236C69.3405 13.6351 69.4189 13.1343 69.6018 12.8339C69.7847 12.5334 70.0198 12.3832 70.3333 12.3832H72.0838C72.4757 12.3832 72.8154 12.4333 73.1028 12.4833C73.3901 12.5835 73.6514 12.7337 73.8343 13.0342C74.0433 13.3346 74.1739 13.7353 74.2785 14.3362C74.383 14.887 74.4352 15.6882 74.4352 16.6397V30.3606C74.4352 31.6125 74.3568 32.5138 74.1739 33.1147C73.9911 33.7157 73.7298 34.1163 73.3901 34.3166C73.0505 34.5169 72.6063 34.617 72.0838 34.567L70.3333 34.617ZM64.7161 1.61681C64.4026 1.66689 64.1413 1.81712 63.9845 2.11758C63.8278 2.41803 63.7494 2.91879 63.7494 3.51971V43.4805C63.7494 44.0814 63.8278 44.5321 64.0107 44.8827C64.1674 45.1831 64.4287 45.3834 64.7422 45.3834H72.0054C73.5208 45.3834 74.8271 45.083 75.8722 44.482C76.9173 43.8811 77.7533 42.9297 78.3803 41.7279C79.0074 40.526 79.4777 38.9236 79.7389 37.0207C80.0263 35.1178 80.157 32.9144 80.157 30.3606V16.6397C80.157 14.0858 80.0263 11.8824 79.7389 9.97954C79.4515 8.07664 79.0074 6.52428 78.3803 5.32245C77.7533 4.07055 76.9173 3.16918 75.8722 2.56826C74.8271 1.96735 73.5469 1.66689 72.0054 1.66689L64.7161 1.61681ZM55.206 28.007C55.206 29.2088 55.1798 30.3105 55.1537 31.2619C55.1014 32.2134 54.9969 33.0146 54.8402 33.7157C54.6834 34.4167 54.4222 34.9175 54.0564 35.268C53.7167 35.6186 53.2465 35.8189 52.6455 35.8189C52.0446 35.8189 51.5743 35.6186 51.2347 35.268C50.8689 34.9175 50.6338 34.4167 50.4509 33.7157C50.2941 33.0647 50.1896 32.2134 50.1374 31.2619C50.0851 30.3105 50.059 29.2088 50.0851 28.007V18.9933C50.0851 17.7914 50.1112 16.6898 50.1374 15.7383C50.1896 14.7869 50.2941 13.9856 50.4509 13.2846C50.6077 12.5835 50.8689 12.0827 51.2347 11.7322C51.5743 11.3817 52.0446 11.1814 52.6455 11.1814C53.2465 11.1814 53.7167 11.3817 54.0564 11.7322C54.4222 12.0827 54.6573 12.5835 54.8402 13.2846C54.9969 13.9356 55.1014 14.7869 55.1537 15.7383C55.206 16.6898 55.206 17.7914 55.206 18.9933V28.007ZM60.7971 15.6882C60.7971 14.9872 60.7709 14.1359 60.7187 13.1343C60.6664 12.1328 60.5619 11.0812 60.379 9.92946C60.1962 8.77771 59.9349 7.67603 59.5952 6.57436C59.2295 5.47268 58.7592 4.47116 58.1583 3.56979C57.5574 2.66841 56.7997 1.91727 55.8853 1.36643C54.9708 0.815594 53.8735 0.565213 52.5933 0.515137C51.3131 0.515137 50.2158 0.815594 49.3013 1.36643C48.3869 1.91727 47.6292 2.66841 47.0283 3.56979C46.4274 4.47116 45.9571 5.47268 45.5913 6.57436C45.2256 7.67603 44.9643 8.82779 44.8075 9.92946C44.6246 11.0812 44.5201 12.1328 44.4679 13.1343C44.4156 14.1359 44.3895 14.9872 44.3895 15.6882V31.312C44.3895 32.0131 44.4156 32.8644 44.4679 33.8659C44.5201 34.8674 44.6246 35.919 44.8075 37.0708C44.9643 38.2225 45.2517 39.3242 45.5913 40.4259C45.9571 41.5275 46.4274 42.5291 47.0283 43.4805C47.6292 44.3819 48.3869 45.133 49.3013 45.6338C50.2158 46.1846 51.3131 46.4851 52.5933 46.4851C53.8735 46.4851 54.9708 46.1846 55.8853 45.6338C56.7997 45.083 57.5574 44.3819 58.1583 43.4805C58.7592 42.5792 59.2295 41.5776 59.5952 40.4259C59.961 39.3242 60.2223 38.1724 60.379 37.0708C60.5358 35.919 60.6664 34.8674 60.7187 33.8659C60.7709 32.8644 60.7971 32.0131 60.7971 31.312V15.6882ZM36.2118 28.007C36.2118 29.2088 36.1857 30.3105 36.1596 31.2619C36.1073 32.2134 36.0028 33.0146 35.8461 33.7157C35.6893 34.4167 35.428 34.9175 35.0623 35.268C34.7226 35.6186 34.2523 35.8189 33.6514 35.8189C33.0505 35.8189 32.5802 35.6186 32.2406 35.268C31.8748 34.9175 31.6397 34.4167 31.4568 33.7157C31.3 33.0647 31.1955 32.2134 31.1432 31.2619C31.091 30.3105 31.0649 29.2088 31.091 28.007V18.9933C31.091 17.7914 31.1171 16.6898 31.1432 15.7383C31.1955 14.7869 31.3 13.9856 31.4568 13.2846C31.6135 12.5835 31.8748 12.0827 32.2406 11.7322C32.5802 11.3817 33.0505 11.1814 33.6514 11.1814C34.2523 11.1814 34.7226 11.3817 35.0623 11.7322C35.428 12.0827 35.6632 12.5835 35.8461 13.2846C36.0028 13.9356 36.1073 14.7869 36.1596 15.7383C36.2118 16.6898 36.2118 17.7914 36.2118 18.9933V28.007ZM41.8291 15.6882C41.8291 14.9872 41.803 14.1359 41.7507 13.1343C41.6984 12.1328 41.5939 11.0812 41.411 9.92946C41.2282 8.77771 40.9669 7.67603 40.6272 6.57436C40.2615 5.47268 39.7912 4.47116 39.1903 3.56979C38.5894 2.66841 37.8317 1.91727 36.9173 1.36643C36.0028 0.815594 34.9055 0.565213 33.6253 0.515137C32.3451 0.515137 31.2478 0.815594 30.3333 1.36643C29.4189 1.91727 28.6612 2.66841 28.0603 3.56979C27.4594 4.47116 26.9891 5.47268 26.6233 6.57436C26.2576 7.67603 25.9963 8.82779 25.8395 9.92946C25.6566 11.0812 25.5521 12.1328 25.4999 13.1343C25.4476 14.1359 25.4215 14.9872 25.4215 15.6882V31.312C25.4215 32.0131 25.4476 32.8644 25.4999 33.8659C25.5521 34.8674 25.6566 35.919 25.8395 37.0708C25.9963 38.2225 26.2837 39.3242 26.6233 40.4259C26.9891 41.5275 27.4594 42.5291 28.0603 43.4805C28.6612 44.3819 29.4189 45.133 30.3333 45.6338C31.2478 46.1846 32.3451 46.4851 33.6253 46.4851C34.9055 46.4851 36.0028 46.1846 36.9173 45.6338C37.8317 45.083 38.5894 44.3819 39.1903 43.4805C39.7912 42.5792 40.2615 41.5776 40.6272 40.4259C40.993 39.3242 41.2543 38.1724 41.411 37.0708C41.5678 35.919 41.6984 34.8674 41.7507 33.8659C41.803 32.8644 41.8291 32.0131 41.8291 31.312V15.6882ZM22.5476 1.61681C23.2007 1.61681 23.5142 2.2678 23.5142 3.46963V10.4803C23.5142 11.0812 23.4359 11.5319 23.2791 11.8824C23.1223 12.233 22.8611 12.3832 22.5476 12.3832H14.0303C13.7167 12.3832 13.4816 12.5334 13.2987 12.8339C13.1158 13.1343 13.0374 13.6351 13.0374 14.236V43.5306C13.0374 44.1315 12.9591 44.5822 12.8023 44.9327C12.6455 45.2332 12.3843 45.4335 12.0707 45.4335H8.23012C7.9166 45.4335 7.68146 45.2833 7.49857 44.9327C7.34181 44.5822 7.2373 44.1315 7.2373 43.5306V3.51971C7.2373 2.91879 7.31568 2.41803 7.49857 2.11758C7.68146 1.81712 7.9166 1.66689 8.23012 1.66689L22.5476 1.61681Z" fill="#B59571"/>
        <path d="M15.2843 25.4031C12.8546 25.0025 0.993032 28.7081 0.104724 24.702C-1.3845 18.0419 11.0779 21.7976 12.7501 21.8977C13.5861 21.9478 14.6312 22.2483 15.2321 21.9478C15.6501 21.6974 15.9375 20.3954 16.4078 19.8947C17.4529 18.6929 19.1511 19.3438 20.6142 19.5942C21.607 19.7445 22.5737 19.9448 23.6188 20.095C22.1295 20.4956 20.5358 20.8962 18.9682 21.2968C18.7853 21.3469 18.4979 21.1967 18.3673 21.5973C19.961 22.098 21.7638 22.1982 23.4881 22.4486C21.7899 22.9493 19.8826 23.0495 18.2105 23.6504C18.315 24.0009 18.6286 23.9008 18.8114 23.9509C20.3007 24.1512 21.9467 24.4015 23.5143 24.5518C21.8944 25.0525 20.0133 25.1527 18.3934 25.7536C18.4457 26.2544 18.7853 26.1041 18.9421 26.1041C20.4313 26.4547 22.1034 26.8553 23.6449 27.1057C21.9467 27.356 19.8565 28.1072 18.106 28.3075C16.7474 28.4577 15.9375 26.9554 15.2843 25.4031Z" fill="#B59571"/>
        <path d="M11.0779 25.8038C12.959 25.5034 14.5528 25.253 15.2843 25.3531C15.6239 26.1544 15.9636 26.9055 16.4339 27.4563C16.878 28.0072 17.4006 28.3577 18.0799 28.2576C19.0465 28.1574 20.1177 27.8569 21.1628 27.6066C21.9205 27.4063 22.652 27.206 23.3313 27.1058C22.652 27.0057 21.9727 26.8554 21.2673 26.7052C20.4574 26.555 19.6736 26.3547 18.942 26.1544H18.8114C18.6285 26.1544 18.3934 26.1544 18.3673 25.7537V25.7037H18.3934C19.2817 25.3531 20.2745 25.1528 21.2673 25.0026C21.9466 24.9025 22.6259 24.7522 23.2529 24.602C22.0772 24.4518 20.8493 24.3015 19.6997 24.1513C19.4123 24.1012 19.1249 24.0512 18.8375 24.0512H18.7069C18.524 24.0512 18.315 24.0512 18.2105 23.7507L18.1844 23.7006H18.2105C19.1511 23.3501 20.17 23.1498 21.1889 22.9996C21.8682 22.8994 22.5737 22.7492 23.2268 22.5989C22.8872 22.5489 22.5214 22.4988 22.1818 22.4487C20.8754 22.2985 19.543 22.1483 18.3673 21.7977H18.315L18.3411 21.7477C18.4456 21.4472 18.6285 21.4472 18.7853 21.4472H18.942L20.1961 21.1467C21.2412 20.8964 22.3124 20.5959 23.3052 20.3455C22.7043 20.2454 22.1034 20.1452 21.5286 20.0451C21.2151 19.995 20.9277 19.9449 20.588 19.8948L19.8042 19.7446C18.5501 19.4942 17.2438 19.1938 16.4077 20.1953C16.1987 20.4457 16.0158 20.8463 15.8591 21.2469C15.6501 21.6976 15.4672 22.1483 15.232 22.2985C14.814 22.4988 14.187 22.4487 13.5599 22.3486C13.2725 22.2985 12.9851 22.2484 12.7239 22.2484C12.4365 22.2484 11.8356 22.0982 11.0518 21.948C8.23009 21.0967 2.92637 20.0451 0.862355 21.7477C0.130807 22.3486 -0.182713 23.2499 0.130807 24.7021C0.731722 27.4563 6.68861 26.5049 11.0779 25.8038ZM15.2843 25.4533C14.5528 25.3531 12.959 25.6035 11.0779 25.904C6.68861 26.605 0.705595 27.5565 0.0785537 24.7021C-0.261094 23.1999 0.0785537 22.2484 0.836228 21.5974C2.92637 19.8948 8.23009 20.9464 11.0779 21.4973C11.8617 21.6475 12.4626 21.7977 12.75 21.7977C13.0113 21.7977 13.2987 21.8478 13.5861 21.8979C14.2131 21.998 14.814 22.0481 15.232 21.8478C15.4411 21.7477 15.6239 21.297 15.833 20.8463C16.0158 20.4457 16.1726 20.0451 16.4077 19.7947C17.2699 18.7932 18.5763 19.0936 19.8565 19.344L20.6403 19.4942C20.9277 19.5443 21.2673 19.5944 21.5808 19.6445C22.2601 19.7446 22.9394 19.8948 23.6448 19.9449L23.9322 19.995L23.671 20.0951C22.5998 20.3956 21.4502 20.6961 20.3006 20.9965L19.0465 21.297H18.8898C18.7592 21.297 18.6024 21.297 18.4979 21.4973C19.6736 21.8478 20.9799 21.998 22.2863 22.1483C22.7304 22.1983 23.1484 22.2484 23.5926 22.2985L23.8539 22.3486L23.5926 22.3986C22.861 22.5989 22.0772 22.7492 21.2934 22.8994C20.3006 23.0997 19.2817 23.2499 18.3673 23.6005C18.4456 23.8008 18.6285 23.8008 18.7853 23.8008H18.9159C19.2033 23.8509 19.4907 23.9009 19.7781 23.9009C21.0322 24.1012 22.3385 24.2515 23.5926 24.4017L23.8539 24.4518L23.5926 24.5519C22.861 24.7522 22.1034 24.9025 21.3457 25.0527C20.379 25.253 19.4123 25.4032 18.524 25.7537C18.5763 26.0542 18.7592 26.0041 18.9159 26.0041H19.0465C19.8042 26.1544 20.588 26.3547 21.3718 26.555C22.1556 26.7052 22.9656 26.9055 23.7232 27.0057V27.1058C22.9656 27.206 22.1034 27.4563 21.2412 27.6566C20.1961 27.907 19.1249 28.2075 18.1582 28.3076C17.4789 28.4078 16.9303 28.0573 16.4861 27.5064C15.9636 27.0057 15.5978 26.2545 15.2843 25.4533Z" fill="#B59571"/>
        </g>
        <defs>
        <clipPath id="clip0_16101_45">
        <rect width="80" height="46" fill="white" transform="translate(0 0.5)"/>
        </clipPath>
        </defs>
    </symbol>

    <symbol id="yt" width="40" height="40" viewBox="0 0 40 40" fill="none" xmlns="http://www.w3.org/2000/svg">
        <path d="M35.9686 12.3729C35.7799 11.6998 35.4124 11.0904 34.905 10.6094C34.3833 10.1137 33.7439 9.75912 33.0471 9.57911C30.4394 8.89177 19.9918 8.89177 19.9918 8.89177C15.6363 8.84222 11.2819 9.06017 6.95311 9.5444C6.25632 9.73771 5.61809 10.1002 5.09521 10.5997C4.58144 11.094 4.2093 11.7036 4.0149 12.3715C3.54792 14.8873 3.32103 17.4417 3.33728 20.0003C3.32062 22.5567 3.54696 25.1103 4.0149 27.6291C4.20514 28.2942 4.57589 28.901 5.09104 29.3912C5.6062 29.8814 6.24772 30.2355 6.95311 30.4229C9.59556 31.1089 19.9918 31.1089 19.9918 31.1089C24.3528 31.1585 28.7128 30.9405 33.0471 30.4562C33.7439 30.2762 34.3833 29.9216 34.905 29.4259C35.4188 28.9358 35.784 28.3262 35.9673 27.6624C36.4464 25.1477 36.6794 22.5922 36.6629 20.0323C36.699 17.4615 36.4663 14.894 35.9686 12.3715V12.3729ZM16.6703 24.7548V15.2473L25.3628 20.0017L16.6703 24.7548Z" fill="#B59571"/>
    </symbol>

    <symbol id="vk" width="40" height="40" viewBox="0 0 40 40" fill="none" xmlns="http://www.w3.org/2000/svg">
        <path d="M36.6144 11.475C36.8978 12.2409 36.0273 14.028 34.0029 16.8363C33.7195 17.2192 33.3551 17.7298 32.9097 18.3681C31.9785 19.5594 31.4522 20.3466 31.3307 20.7295C31.1283 21.2401 31.2092 21.7295 31.5736 22.1975C31.7761 22.4528 32.2417 22.9634 32.9705 23.7293H33.0312V23.7931C34.6912 25.3674 35.8046 26.7077 36.3714 27.814L36.4929 28.0693L36.6144 28.548V29.1543L36.1893 29.633L35.1568 29.8564L30.7234 29.984C30.44 30.0266 30.1059 29.984 29.7213 29.8564C29.3367 29.7287 29.0431 29.6011 28.8407 29.4735L28.4763 29.2182C28.1119 28.9629 27.707 28.5799 27.2617 28.0693C26.8163 27.5587 26.4215 27.0907 26.0774 26.6652C25.7332 26.2397 25.379 25.8887 25.0146 25.6121C24.6502 25.3355 24.3263 25.2398 24.0429 25.3249C24.0024 25.3249 23.9518 25.3462 23.891 25.3887C23.8303 25.4313 23.7291 25.527 23.5874 25.6759C23.4457 25.8248 23.3242 26.0057 23.223 26.2184C23.1218 26.4312 23.0307 26.7397 22.9497 27.1439C22.8687 27.5481 22.8282 28.0268 22.8282 28.5799C22.8282 28.7501 22.808 28.9097 22.7675 29.0586C22.727 29.2075 22.6865 29.3245 22.646 29.4096L22.5853 29.4735C22.3424 29.7287 22.0185 29.8564 21.6136 29.8564H19.6702C18.8199 29.9415 17.9595 29.8564 17.089 29.6011C16.2186 29.3458 15.4594 29.016 14.8116 28.6118C14.1638 28.2076 13.5767 27.8034 13.0504 27.3992C12.524 26.9949 12.1191 26.6439 11.8357 26.3461L11.4106 25.8993C11.2891 25.8142 11.1272 25.644 10.9247 25.3887C10.7223 25.1334 10.3073 24.5803 9.67974 23.7293C9.05218 22.8783 8.43474 21.9635 7.82742 20.9848C7.2201 20.0062 6.51156 18.7191 5.7018 17.1235C4.89204 15.5279 4.14301 13.8791 3.45472 12.1771C3.37374 11.9644 3.33325 11.7942 3.33325 11.6665C3.33325 11.5389 3.3535 11.4325 3.39398 11.3474L3.45472 11.2836C3.61667 11.0283 3.94057 10.9006 4.42643 10.9006H9.22425C9.34572 10.9006 9.46718 10.9325 9.58865 10.9964L9.89231 11.1559L9.95304 11.2198C10.1555 11.3474 10.2972 11.5389 10.3782 11.7942C10.6211 12.3899 10.8944 13.0175 11.198 13.677C11.5017 14.3365 11.7345 14.8365 11.8965 15.1768L12.1394 15.6874C12.5038 16.4108 12.8378 17.0384 13.1415 17.5703C13.4451 18.1021 13.7184 18.517 13.9613 18.8148C14.2043 19.1127 14.4472 19.3467 14.6901 19.5169C14.9331 19.6871 15.1355 19.7722 15.2975 19.7722C15.4594 19.7722 15.6214 19.7509 15.7833 19.7084L15.844 19.6126L16.0566 19.1978L16.2995 18.3681L16.4514 16.9001V14.6024C16.4109 14.1344 16.3501 13.6983 16.2692 13.294C16.1882 12.8898 16.1072 12.6026 16.0262 12.4324L15.9655 12.2409C15.6821 11.8154 15.176 11.5389 14.4472 11.4112C14.3257 11.4112 14.3662 11.2623 14.5687 10.9645C14.7711 10.7517 14.9938 10.5815 15.2367 10.4539C15.844 10.1135 17.2206 9.96454 19.3665 10.0071C20.2977 10.0071 21.0872 10.0922 21.735 10.2624C21.9375 10.3049 22.1197 10.3794 22.2816 10.4858C22.4436 10.5921 22.565 10.7411 22.646 10.9325C22.727 11.124 22.7877 11.3155 22.8282 11.507C22.8687 11.6984 22.889 11.975 22.889 12.3367V13.3259C22.8485 13.6663 22.8282 14.0918 22.8282 14.6024V16.1342C22.8282 16.2619 22.8181 16.5172 22.7979 16.9001C22.7776 17.283 22.7675 17.5809 22.7675 17.7936C22.7675 18.0064 22.7877 18.251 22.8282 18.5276C22.8687 18.8042 22.9396 19.0382 23.0408 19.2297C23.142 19.4212 23.2736 19.5594 23.4355 19.6445C23.5165 19.6871 23.6076 19.719 23.7088 19.7403C23.8101 19.7615 23.9619 19.6977 24.1643 19.5488C24.3668 19.3999 24.5894 19.1871 24.8324 18.9106C25.0753 18.634 25.379 18.2191 25.7434 17.666C26.1077 17.1128 26.4924 16.4746 26.8973 15.7513C27.5856 14.4748 28.2131 13.0919 28.78 11.6027C28.8204 11.5176 28.871 11.4219 28.9318 11.3155C28.9925 11.2091 29.0634 11.1347 29.1443 11.0921H29.2051L29.2658 11.0283L29.5087 10.9645H29.8731L34.8531 10.9006C35.2985 10.8581 35.673 10.8794 35.9767 10.9645C36.2803 11.0496 36.4524 11.1559 36.4929 11.2836L36.6144 11.475Z" fill="#B59571"/>
    </symbol>

    <symbol id="tg" width="40" height="40" viewBox="0 0 40 40" fill="none" xmlns="http://www.w3.org/2000/svg">
        <path d="M29.6112 11.228L9.92656 18.4687C8.58316 18.9834 8.59093 19.6983 9.68008 20.0171L14.7339 21.5209L26.427 14.4835C26.9799 14.1626 27.4851 14.3352 27.0698 14.6869L17.5961 22.8426H17.5939L17.5961 22.8437L17.2475 27.8128C17.7582 27.8128 17.9836 27.5893 18.27 27.3256L20.7248 25.0487L25.8308 28.6463C26.7723 29.1409 27.4484 28.8867 27.6827 27.8149L31.0345 12.7467C31.3776 11.4345 30.5094 10.8404 29.6112 11.228Z" fill="#B59571"/>
    </symbol>


</svg>